<?xml version="1.0" encoding="UTF-8"?>
<svg id="Ebene_1" data-name="Ebene 1" xmlns="http://www.w3.org/2000/svg" viewBox="0 0 457.95 411.99">
  <defs>
    <style>
      .cls-1 {
        fill: #293157;
      }

      .cls-2 {
        fill: #f0c12b;
      }
    </style>
  </defs>
  <path class="cls-1" d="M262.62,188.2l-.39,91.98-36.3.32-.08-153.3,26.5.02,69.23,78.16,85.08-83.42c14.27,28.04,20.56,58.77,19.94,90.54-.17,31.04-7.86,60.25-22.12,87.68-38.7,71.53-112.14,112.65-193.36,111.79-96.68-1.02-182.49-63.86-205.69-158.66-6.52-26.66-6.85-53.32-2.73-80.46,5.45-35.89,20.27-68.41,43.77-96.1C89.57,26.01,154.26-2.5,221.09.17c52.04,2.08,107.19,26.43,142.61,64.92l-25.54,26.86c-12.67-12.85-25.56-24.06-41.31-32.39-69.65-39.82-157.25-26.38-212.82,30.82-18.74,19.29-32.17,41.69-39.81,67.56-16.15,54.71-3.22,114.08,34.37,157.19,33.12,37.99,81.02,59.61,131.49,61.01,44.36.35,86.81-14.76,120.37-42.97,45.41-38.17,66.91-96.98,55.13-155.77l-58.5,65.75-18.89.21-45.56-55.15Z"/>
  <path class="cls-1" d="M194.41,240.02l19.37,25.31c-7.67,7.93-16.35,12.63-26.09,16.61-42.36,15.38-94.57-.52-110.34-45.6-7.16-20.48-6.85-43.32,1.29-63.64,7.98-19.91,24.22-34.57,43.67-42.73,30.14-11.47,63.11-7.19,88.65,13.29l-18.9,26.99c-16.76-13.22-39.29-15.56-58.32-6.47-15.48,7.92-23.87,23.42-24.04,40.72-.16,15.65,5.43,30.12,17.88,39.77,20.11,13.78,47.03,12.59,66.84-4.25Z"/>
  <path class="cls-2" d="M265.81,122.02l26.16-27.04,18.25,19.41c3.99,4.82,8.16,9.09,13.1,13.71l37.28-38.15,70.32-72.74,27.02,26.91-83.92,87.14-31.99,33.23-19.09,19.23-57.13-61.7Z"/>
</svg>